<?xml version="1.0" standalone="no"?>
<!DOCTYPE svg PUBLIC "-//W3C//DTD SVG 20010904//EN"
 "http://www.w3.org/TR/2001/REC-SVG-20010904/DTD/svg10.dtd">
<svg version="1.0" xmlns="http://www.w3.org/2000/svg"
 width="512.000000pt" height="512.000000pt" viewBox="0 0 512.000000 512.000000"
 preserveAspectRatio="xMidYMid meet">

<g transform="translate(0.000000,512.000000) scale(0.100000,-0.100000)"
fill="#000000" stroke="none">
<path d="M2265 5098 c-712 -80 -1391 -490 -1809 -1092 -232 -333 -380 -718
-437 -1136 -17 -123 -18 -507 -1 -625 43 -301 120 -554 247 -810 76 -154 113
-216 256 -425 24 -36 116 -137 204 -225 237 -238 436 -382 720 -520 161 -78
258 -119 339 -141 196 -53 255 -67 361 -85 153 -27 511 -37 677 -20 623 64
1193 355 1630 830 588 640 811 1566 573 2391 -269 936 -1025 1638 -1965 1824
-69 14 -169 30 -222 35 -115 13 -459 12 -573 -1z m670 -227 c662 -116 1228
-487 1593 -1044 64 -98 187 -326 179 -333 -2 -2 -57 23 -123 55 -494 246
-1015 362 -1629 363 -327 0 -606 -27 -896 -86 l-108 -23 -15 87 c-53 284 -41
547 41 916 4 19 20 25 116 44 201 40 309 49 522 45 144 -2 234 -9 320 -24z
m-1199 -138 c-35 -111 -56 -499 -37 -684 53 -514 292 -1037 662 -1449 l81 -90
-43 -78 c-122 -223 -276 -429 -459 -613 -149 -149 -224 -214 -239 -205 -19 12
-221 324 -291 449 -161 291 -290 620 -354 908 -83 376 -87 765 -11 1104 27
119 92 332 108 352 12 16 182 128 262 173 63 36 304 149 318 150 5 0 6 -8 3
-17z m-910 -669 c-63 -301 -69 -644 -16 -974 82 -506 319 -1057 646 -1507 41
-56 74 -104 74 -107 0 -7 -156 -99 -248 -145 -166 -83 -462 -188 -545 -193
l-41 -3 -78 115 c-199 294 -331 651 -379 1025 -15 123 -16 458 0 580 45 353
158 668 343 958 60 93 247 329 256 322 1 -1 -4 -33 -12 -71z m2594 -388 c495
-67 914 -208 1288 -432 104 -63 113 -70 123 -108 88 -325 97 -743 22 -1063 -9
-40 -20 -73 -24 -73 -4 0 -42 32 -85 71 -430 391 -936 600 -1540 639 -157 10
-413 -1 -539 -24 l-80 -14 -63 62 c-187 181 -378 485 -483 769 -27 71 -30 90
-20 97 28 17 374 72 561 89 165 15 692 6 840 -13z m46 -1204 c123 -23 153 -30
307 -74 59 -17 107 -34 107 -38 0 -13 -78 -186 -135 -301 -421 -841 -1048
-1429 -1770 -1662 -168 -54 -167 -54 -281 -12 -188 71 -376 175 -549 305 -90
68 -285 245 -285 259 0 5 35 18 77 30 125 36 348 127 481 196 505 264 918 675
1181 1178 26 50 50 98 52 105 14 44 595 54 815 14z m760 -289 c166 -100 300
-202 435 -331 l108 -103 -16 -42 c-30 -81 -125 -273 -175 -357 -424 -704
-1192 -1140 -2010 -1140 -138 0 -332 16 -356 29 -9 5 3 14 35 26 176 65 492
253 688 409 127 102 386 360 497 496 228 281 432 613 574 936 38 85 73 154 79
154 6 0 69 -35 141 -77z"/>
</g>
</svg>
