<?xml version="1.0" standalone="no"?>
<!DOCTYPE svg PUBLIC "-//W3C//DTD SVG 20010904//EN"
 "http://www.w3.org/TR/2001/REC-SVG-20010904/DTD/svg10.dtd">
<svg version="1.0" xmlns="http://www.w3.org/2000/svg"
 width="512.000000pt" height="512.000000pt" viewBox="0 0 512.000000 512.000000"
 preserveAspectRatio="xMidYMid meet">

<g transform="translate(0.000000,512.000000) scale(0.100000,-0.100000)"
fill="#000000" stroke="none">
<path d="M2330 4484 c-1034 -36 -1872 -268 -2183 -604 -34 -37 -75 -90 -89
-117 -55 -100 -58 -133 -58 -683 0 -557 1 -568 62 -683 182 -341 897 -606
1867 -692 96 -8 175 -16 176 -18 0 -1 14 -21 29 -44 54 -80 146 -153 239 -188
l47 -18 0 -83 0 -84 -94 0 -94 0 -11 50 c-15 69 -32 99 -84 147 -51 47 -102
67 -172 67 -70 0 -121 -20 -172 -67 -51 -47 -68 -76 -83 -143 -17 -75 1 -142
62 -226 10 -14 9 -21 -9 -40 -52 -56 -72 -169 -44 -252 19 -56 93 -131 149
-153 95 -36 196 -17 269 50 52 48 69 78 84 147 l11 50 328 0 328 0 11 -50 c15
-69 32 -99 84 -147 51 -47 102 -67 172 -67 70 0 121 20 172 67 51 47 68 76 83
143 17 75 -1 142 -62 226 -10 14 -9 21 9 40 52 56 72 169 44 252 -19 56 -93
131 -149 153 -95 36 -196 17 -269 -50 -52 -48 -69 -78 -84 -147 l-11 -50 -94
0 -94 0 0 84 0 83 48 18 c92 35 184 108 238 188 15 23 29 43 29 44 1 2 80 10
176 18 315 28 676 87 899 147 606 162 941 381 1015 663 22 87 22 1039 0 1134
-21 86 -57 150 -132 231 -281 303 -1004 527 -1908 589 -159 11 -592 20 -735
15z m880 -308 c211 -22 460 -60 605 -91 66 -14 132 -28 148 -32 l27 -5 0 -315
0 -315 -27 7 c-470 120 -973 173 -1533 162 -698 -15 -1287 -125 -1713 -320
l-88 -40 -47 22 c-142 69 -269 184 -291 264 -12 40 -11 50 9 93 121 275 851
515 1780 584 191 14 951 5 1130 -14z m1163 -252 c163 -62 317 -155 394 -235
18 -19 42 -56 53 -83 20 -43 21 -53 9 -93 -22 -80 -149 -195 -291 -264 l-47
-22 -93 42 c-51 23 -100 46 -108 50 -13 7 -15 55 -18 325 -1 174 0 316 3 316
3 0 47 -16 98 -36z m-1473 -624 c455 -28 874 -101 1164 -202 l38 -14 -83 -23
c-330 -88 -780 -147 -1222 -159 -638 -18 -1246 39 -1696 159 l-84 23 54 18
c456 157 1192 237 1829 198z m-232 -1156 c116 -58 160 -203 98 -323 -35 -65
-129 -121 -206 -121 -77 0 -171 56 -206 121 -84 162 27 349 206 349 40 0 71
-7 108 -26z"/>
</g>
</svg>
