<?xml version="1.0" standalone="no"?>
<!DOCTYPE svg PUBLIC "-//W3C//DTD SVG 20010904//EN"
 "http://www.w3.org/TR/2001/REC-SVG-20010904/DTD/svg10.dtd">
<svg version="1.0" xmlns="http://www.w3.org/2000/svg"
 width="512.000000pt" height="512.000000pt" viewBox="0 0 512.000000 512.000000"
 preserveAspectRatio="xMidYMid meet">
<metadata>
Created by potrace 1.16, written by Peter Selinger 2001-2019
</metadata>
<g transform="translate(0.000000,512.000000) scale(0.100000,-0.100000)"
fill="#000000" stroke="none">
<path d="M2155 4009 c-607 -34 -1109 -138 -1407 -291 -118 -60 -223 -152 -262
-230 -18 -37 -66 -227 -161 -641 -74 -324 -135 -590 -135 -592 0 -2 -15 -11
-34 -20 -83 -39 -145 -130 -153 -224 -19 -209 135 -415 414 -555 587 -293
1780 -424 2918 -320 576 52 1058 165 1368 320 279 140 433 346 414 555 -8 94
-70 185 -153 224 -19 9 -34 18 -34 20 0 2 -61 268 -135 592 -87 376 -145 607
-161 640 -154 319 -1019 538 -2104 531 -129 0 -298 -5 -375 -9z m955 -309
c447 -36 799 -105 1029 -199 115 -48 221 -115 221 -140 0 -16 -83 -69 -173
-111 -473 -221 -1610 -307 -2497 -189 -307 41 -594 113 -757 189 -90 42 -173
95 -173 111 0 25 123 102 232 145 149 58 425 124 673 159 395 56 1004 71 1445
35z m-1135 -1160 c69 -30 134 -115 135 -177 l0 -23 450 0 450 0 0 23 c1 33 33
98 66 131 65 65 174 86 262 51 51 -21 118 -94 132 -144 18 -65 12 -125 -18
-182 l-27 -52 27 -55 c63 -124 8 -275 -119 -329 -43 -18 -135 -17 -181 3 -71
29 -141 120 -142 182 l0 22 -450 0 c-446 0 -450 0 -450 -20 0 -61 -66 -149
-135 -181 -48 -22 -142 -25 -188 -6 -127 54 -182 205 -119 329 l27 55 -27 52
c-46 88 -36 185 28 259 73 86 173 108 279 62z"/>
</g>
</svg>
