<?xml version="1.0" standalone="no"?>
<!DOCTYPE svg PUBLIC "-//W3C//DTD SVG 20010904//EN"
 "http://www.w3.org/TR/2001/REC-SVG-20010904/DTD/svg10.dtd">
<svg version="1.0" xmlns="http://www.w3.org/2000/svg"
 width="512.000000pt" height="512.000000pt" viewBox="0 0 512.000000 512.000000"
 preserveAspectRatio="xMidYMid meet">

<g transform="translate(0.000000,512.000000) scale(0.100000,-0.100000)"
fill="#000000" stroke="none">
<path d="M1611 4294 c-20 -25 -21 -39 -21 -239 0 -200 1 -214 21 -239 18 -23
27 -26 85 -26 l64 0 0 -83 0 -84 -41 -13 c-55 -18 -134 -91 -167 -154 l-27
-51 -3 -1276 -2 -1276 21 -26 20 -27 999 0 999 0 20 27 21 26 -2 1271 -3 1271
-24 52 c-28 63 -99 132 -163 159 l-48 19 0 83 0 82 64 0 c58 0 67 3 85 26 20
25 21 39 21 239 0 200 -1 214 -21 239 l-20 26 -929 0 -929 0 -20 -26z m1784
-239 l0 -130 -835 0 -835 0 -3 119 c-1 66 0 126 2 133 4 11 158 13 838 11
l833 -3 0 -130z m-165 -389 c0 -146 6 -157 89 -175 65 -14 103 -40 125 -85 14
-31 16 -149 16 -1255 l0 -1221 -900 0 -900 0 0 165 0 165 755 0 c742 0 755 0
775 20 20 20 20 33 20 935 0 902 0 915 -20 935 -20 20 -33 20 -775 20 l-755 0
0 101 c0 151 29 196 141 220 83 18 89 29 89 175 l0 124 670 0 670 0 0 -124z
m-150 -1451 l0 -825 -710 0 -710 0 0 250 0 250 94 0 94 0 4 -146 c4 -200 -24
-184 323 -184 347 0 319 -16 323 183 l3 146 146 3 c199 4 183 -24 183 323 0
347 16 319 -183 323 l-146 3 -3 146 c-4 199 24 183 -323 183 -347 0 -319 16
-323 -184 l-4 -146 -94 0 -94 0 0 250 0 250 710 0 710 0 0 -825z m-720 380 c0
-142 1 -147 25 -170 23 -24 28 -25 170 -25 l145 0 0 -185 0 -185 -145 0 c-142
0 -147 -1 -170 -25 -24 -23 -25 -28 -25 -170 l0 -145 -185 0 -185 0 0 145 c0
142 -1 147 -25 170 -23 24 -29 25 -165 25 l-140 0 0 185 0 185 140 0 c136 0
142 1 165 25 24 23 25 28 25 170 l0 145 185 0 185 0 0 -145z"/>
</g>
</svg>
