<?xml version="1.0" standalone="no"?>
<!DOCTYPE svg PUBLIC "-//W3C//DTD SVG 20010904//EN"
 "http://www.w3.org/TR/2001/REC-SVG-20010904/DTD/svg10.dtd">
<svg version="1.0" xmlns="http://www.w3.org/2000/svg"
 width="512.000000pt" height="512.000000pt" viewBox="0 0 512.000000 512.000000"
 preserveAspectRatio="xMidYMid meet">

<g transform="translate(0.000000,512.000000) scale(0.100000,-0.100000)"
fill="#000000" stroke="none">
<path d="M2560 4585 l0 -315 210 0 210 0 0 105 0 105 563 0 c522 0 565 -2 602
-19 51 -23 101 -79 114 -128 7 -26 11 -396 11 -1120 l0 -1083 -2135 0 -2135 0
0 -210 0 -210 215 0 215 0 0 -137 c0 -154 11 -237 42 -333 83 -257 274 -453
528 -544 l90 -32 -141 -190 c-79 -104 -153 -204 -167 -221 l-24 -33 261 0 261
0 157 210 158 210 965 0 965 0 158 -210 157 -210 261 0 261 0 -24 33 c-14 17
-88 117 -167 221 l-141 190 90 32 c254 91 445 287 528 544 31 96 42 179 42
333 l0 137 215 0 215 0 0 210 0 210 -215 0 -215 0 0 1098 c0 1226 3 1171 -71
1322 -56 114 -169 228 -280 283 -137 67 -126 67 -996 67 l-783 0 0 -315z
m1710 -2999 c0 -68 -5 -148 -10 -177 -32 -169 -180 -310 -356 -339 -79 -13
-2609 -13 -2688 0 -176 29 -324 170 -356 339 -5 29 -10 109 -10 177 l0 124
1710 0 1710 0 0 -124z"/>
<path d="M2683 4025 c-154 -77 -155 -292 -2 -369 60 -30 113 -33 167 -10 145
60 176 248 59 351 -66 57 -145 67 -224 28z"/>
<path d="M2310 3510 c-185 -33 -232 -272 -75 -379 43 -29 126 -39 179 -21 126
41 180 204 104 313 -46 66 -130 101 -208 87z"/>
<path d="M3115 3496 c-66 -30 -124 -115 -125 -181 0 -117 95 -215 210 -215
115 0 210 98 210 216 0 48 -46 128 -92 160 -33 23 -53 29 -107 31 -41 2 -77
-2 -96 -11z"/>
<path d="M1835 2961 c-81 -36 -133 -129 -122 -214 8 -61 55 -127 109 -155 162
-83 345 62 299 236 -23 85 -111 152 -201 152 -25 0 -63 -9 -85 -19z"/>
<path d="M2690 2965 c-130 -59 -164 -221 -69 -329 44 -50 90 -70 161 -68 121
2 206 102 196 227 -5 64 -36 114 -93 152 -50 34 -141 42 -195 18z"/>
<path d="M3542 2963 c-77 -37 -122 -108 -122 -188 0 -147 139 -243 282 -196
51 17 114 90 126 146 16 73 -8 154 -60 202 -55 52 -161 68 -226 36z"/>
</g>
</svg>
